<?xml version="1.0" encoding="UTF-8" standalone="no"?>
<svg
   xmlns:dc="http://purl.org/dc/elements/1.1/"
   xmlns:cc="http://creativecommons.org/ns#"
   xmlns:rdf="http://www.w3.org/1999/02/22-rdf-syntax-ns#"
   xmlns:svg="http://www.w3.org/2000/svg"
   xmlns="http://www.w3.org/2000/svg"
   viewBox="0 0 220.35001 220.05"
   height="220.05"
   width="220.35001"
   version="1.1"
   id="svg3491">
  <metadata
     id="metadata3497">
    <rdf:RDF>
      <cc:Work
         rdf:about="">
        <dc:format>image/svg+xml</dc:format>
        <dc:type
           rdf:resource="http://purl.org/dc/dcmitype/StillImage" />
        <dc:title></dc:title>
      </cc:Work>
    </rdf:RDF>
  </metadata>
  <defs
     id="defs3495" />
  <path
     id="path4530"
     d="M 104.325,219.88735 C 93.189258,219.54684 85.810076,218.29636 75.900005,215.07047 49.538425,206.48931 27.032535,187.71469 13.271255,162.825 8.9741643,155.05297 5.4456043,146.36752 3.0943843,137.775 1.0951243,130.46866 0.11252432,121.2502 0.11252432,109.8 0.11252432,97.917397 1.1370043,88.731828 3.3246443,81 11.891165,50.723113 33.093425,25.134606 61.275005,11.06105 70.722985,6.3428367 82.262769,2.5741678 91.212198,1.284142 96.996888,0.45030147 102.32751,0.12313527 110.175,0.12030227 c 10.21511,-0.00369 17.48979,0.6271085 23.92501,2.07456793 16.03806,3.6074058 32.32674,11.6766518 45.675,22.6269328 2.78977,2.288596 5.43081,4.699283 8.46765,7.729119 15.72172,15.685425 24.78166,32.500016 29.54229,54.828368 2.99904,14.06607 3.30894,26.94474 0.97953,40.70497 -2.56685,15.1628 -8.46033,30.0763 -16.92971,42.84074 -4.35382,6.56178 -8.28882,11.29927 -14.20336,17.1 -14.49429,14.21536 -32.75505,24.57826 -51.5064,29.22966 -5.00722,1.24207 -9.22715,1.89703 -15.10136,2.34382 -2.0823,0.15839 -10.82655,0.46262 -12.19865,0.42443 -0.4125,-0.0115 -2.4375,-0.0725 -4.5,-0.13556 z M 77.719245,183.44578 c 5.486069,-0.54553 8.936052,-1.68298 11.024434,-3.63469 1.22259,-1.14258 2.317399,-2.56417 2.908799,-3.77706 0.36282,-0.74406 0.4707,-1.22206 0.59448,-2.63403 0.43353,-4.94508 0.70289,-18.49897 0.87262,-43.90866 l 0.10543,-15.78366 1.70328,2.16564 c 0.93681,1.1911 2.26902,2.70877 2.96047,3.37259 5.706732,5.47869 12.933652,5.97818 19.768192,1.36627 1.52483,-1.02894 2.55883,-1.90766 4.91289,-4.17509 3.73097,-3.59366 4.30117,-3.72293 3.89971,-0.8841 -0.21676,1.53276 -1.52018,7.16684 -2.28736,9.88724 -1.57333,5.57896 -3.85479,10.63719 -6.81511,15.10977 -4.09634,6.18894 -9.29331,10.78648 -15.81708,13.9927 -2.955622,1.45259 -4.024272,2.05755 -5.024992,2.8446 -1.42827,1.12331 -1.61543,1.93757 -0.56413,2.45418 0.87633,0.43064 3.88899,0.39545 5.589122,-0.0653 7.2253,-1.95796 17.13071,-9.76792 23.95822,-18.88995 2.88843,-3.85914 4.11722,-6.10996 6.57096,-12.03625 l 1.64583,-3.975 0.10535,3.9 c 0.0579,2.145 0.24417,9.84 0.41384,17.1 0.66231,28.33912 0.84717,30.93411 2.35907,33.11578 1.12767,1.62723 5.05234,3.5493 8.64743,4.23498 5.0146,0.95642 9.98597,-0.94635 16.78294,-6.42358 5.06848,-4.08437 11.5887,-10.62729 15.21192,-15.26492 13.52611,-17.31298 20.10925,-40.19046 17.67175,-61.41226 -2.62596,-22.862697 -15.24201,-44.696759 -34.0423,-58.915584 -5.77788,-4.369863 -11.96044,-7.891979 -18.3,-10.425264 -2.61912,-1.046598 -8.00337,-2.955985 -8.08985,-2.868859 -0.0326,0.03284 -0.20203,11.332207 -0.37651,25.109707 -0.17449,13.7775 -0.33219,25.580964 -0.35045,26.229919 l -0.0332,1.179918 -2.34982,-3.504918 c -3.24783,-4.844389 -4.89439,-6.669292 -7.72754,-8.564553 -2.22509,-1.488493 -4.95872,-2.443806 -8.04794,-2.812493 -3.27958,-0.391405 -7.15448,0.442411 -10.982,2.363149 -4.00471,2.009658 -6.561102,4.347655 -9.524062,8.710416 l -1.86864,2.751439 -0.0936,-7.851439 c -0.098,-8.222167 -0.21132,-9.901996 -0.89886,-13.326418 -0.85235,-4.245311 -2.442974,-7.280795 -4.468207,-8.526932 -1.675206,-1.030765 -5.409847,-1.774907 -13.640256,-2.717876 -9.15082,-1.048424 -10.58719,-1.566297 -11.56014,-4.167927 -0.46342,-1.23918 -0.92154,-1.6877 -1.72189,-1.685799 -1.53197,0.0036 -3.6139,1.52773 -8.66316,6.341935 -5.11322,4.875185 -9.2987,9.881878 -13.06766,15.631599 -2.36179,3.603014 -3.85167,6.216579 -5.81459,10.2 -4.5568,9.247283 -6.13631,15.263607 -7.2263,27.525 -0.26862,3.02163 -0.26408,15.95918 0.007,18.975 0.45804,5.10246 1.13673,8.72573 2.50103,13.35226 5.54968,18.8196 18.60665,36.40976 35.37538,47.65713 2.83712,1.90295 4.36873,2.57411 6.54661,2.86875 0.7739,0.1047 5.42432,-0.0289 7.21924,-0.20736 z m 32.905765,-68.61677 c -3.88266,-0.71704 -6.30236,-2.64559 -8.28585,-6.60401 -1.14908,-2.29321 -1.9359,-4.9747 -2.464772,-8.399995 -0.43303,-2.804639 -0.54453,-9.210527 -0.21408,-12.300005 1.186602,-11.093937 5.846762,-17.238732 13.064702,-17.226834 2.31366,0.0038 3.95975,0.478291 5.72557,1.650375 4.30231,2.855712 7.05833,8.650057 8.09799,17.025463 0.30465,2.45419 0.35074,8.543176 0.0804,10.626001 -0.76199,5.871485 -2.40758,9.919965 -5.12553,12.609785 -1.51596,1.50027 -3.1957,2.31212 -5.55347,2.68412 -1.31064,0.20678 -4.03361,0.17359 -5.325,-0.0649 z M 75.300005,34.584498 c 7.026697,-1.102287 30.417295,-6.235641 35.700005,-7.834805 1.71714,-0.519807 3.08808,-1.153724 3.28308,-1.518081 0.22543,-0.421224 -0.24191,-0.976848 -1.01693,-1.209051 -3.37009,-1.009704 -14.715922,0.758936 -26.341155,4.106178 -8.02124,2.309549 -16.275,5.65998 -16.275,6.606474 0,0.335681 1.9529,0.272382 4.65,-0.150715 z"
     style="fill:#921213;fill-opacity:1" />
</svg>
